<?xml version="1.0" standalone="no"?>
<!DOCTYPE svg PUBLIC "-//W3C//DTD SVG 20010904//EN"
 "http://www.w3.org/TR/2001/REC-SVG-20010904/DTD/svg10.dtd">
<svg version="1.0" xmlns="http://www.w3.org/2000/svg"
 width="1758.000000pt" height="1690.000000pt" viewBox="0 0 1758.000000 1690.000000"
 preserveAspectRatio="xMidYMid meet">

<g transform="translate(0.000000,1690.000000) scale(0.100000,-0.100000)"
fill="#000000" stroke="none">
<path d="M8135 16349 c-1205 -75 -2349 -407 -3390 -984 -1243 -688 -2320
-1738 -3037 -2960 -127 -216 -162 -281 -279 -518 -410 -830 -662 -1686 -773
-2632 -3 -27 -13 -129 -21 -225 -104 -1255 75 -2490 531 -3648 186 -471 429
-947 708 -1382 561 -877 1324 -1668 2176 -2256 326 -225 750 -474 1045 -614
586 -277 1076 -453 1645 -589 259 -62 514 -110 647 -121 324 -28 666 64 963
257 110 72 336 297 409 408 92 141 173 320 218 485 46 169 46 168 52 1320 l6
1095 281 5 281 5 40 27 c67 44 83 90 83 244 0 104 -4 137 -19 170 -27 60 -80
96 -147 102 -29 2 -58 10 -64 17 -6 7 -10 42 -8 77 l3 63 59 7 c68 9 121 40
151 90 16 27 20 55 23 158 4 141 -6 194 -44 240 -34 40 -71 58 -136 68 l-53 7
0 70 0 70 50 6 c60 7 100 27 136 66 39 42 49 84 49 215 0 130 -11 172 -58 222
-32 34 -61 46 -127 55 l-50 6 0 69 0 69 40 12 c22 7 96 27 165 45 759 199
1271 675 1425 1324 59 254 65 371 65 1291 -1 637 2 790 12 794 30 9 106 100
122 146 23 68 24 510 1 575 -21 61 -66 112 -127 146 l-53 29 -395 3 c-217 1
-405 4 -417 7 l-23 5 0 1113 c0 1064 -1 1114 -19 1153 -18 40 -65 84 -106 98
-25 9 -506 9 -531 0 -35 -12 -84 -55 -102 -87 -16 -30 -17 -110 -22 -1157 l-5
-1125 -885 0 -885 0 -5 1127 -5 1126 -30 43 c-55 77 -69 80 -353 80 -137 0
-260 -5 -274 -10 -39 -15 -90 -62 -104 -98 -12 -27 -14 -228 -14 -1147 0
-1006 -2 -1114 -16 -1120 -9 -3 -192 -6 -407 -7 -274 0 -402 -4 -424 -12 -56
-21 -120 -74 -150 -124 l-28 -48 -3 -268 c-3 -265 -3 -268 21 -321 15 -33 43
-69 76 -97 l51 -44 0 -810 c0 -458 4 -858 10 -920 43 -476 197 -832 485 -1121
269 -269 600 -445 1067 -564 138 -36 138 -35 138 -115 0 -22 -4 -45 -8 -51 -4
-6 -31 -14 -61 -17 -70 -8 -122 -43 -150 -99 -18 -38 -21 -62 -21 -178 0 -113
3 -140 20 -175 31 -63 100 -105 175 -105 21 0 35 -6 39 -16 8 -22 7 -107 -2
-120 -4 -6 -29 -14 -56 -17 -63 -9 -122 -43 -149 -87 -19 -31 -22 -52 -25
-177 -4 -131 -2 -147 18 -189 29 -59 83 -95 153 -102 28 -3 55 -10 59 -16 11
-17 9 -105 -2 -127 -8 -14 -21 -19 -56 -19 -55 0 -91 -18 -132 -64 -40 -45
-45 -75 -40 -239 3 -128 4 -135 31 -170 53 -70 60 -71 372 -77 l280 -5 3
-1035 c3 -1060 2 -1108 -35 -1220 -87 -263 -292 -451 -548 -504 -102 -21 -198
-20 -326 3 -1529 283 -2899 1029 -3960 2156 -596 633 -1071 1369 -1411 2185
-203 485 -376 1098 -452 1600 -9 58 -21 130 -26 160 -5 30 -18 141 -29 245
-87 839 -31 1682 164 2481 99 403 248 851 381 1142 13 29 36 80 50 115 14 34
70 150 124 257 565 1129 1434 2108 2488 2804 881 581 1840 952 2872 1110 397
61 671 81 1120 80 387 0 561 -11 894 -54 1159 -151 2256 -582 3226 -1268 739
-523 1380 -1182 1889 -1940 63 -93 281 -448 281 -457 0 -2 15 -30 34 -62 18
-32 68 -125 110 -208 735 -1436 958 -3034 645 -4620 -105 -529 -287 -1102
-495 -1553 -19 -41 -34 -75 -34 -78 0 -2 -36 -76 -79 -163 -368 -739 -825
-1377 -1390 -1941 -983 -980 -2146 -1617 -3505 -1921 -235 -52 -758 -138 -854
-139 -10 0 -12 -83 -10 -397 l3 -398 50 3 c28 1 122 12 210 23 784 97 1553
306 2274 618 611 265 1251 660 1801 1110 410 336 874 806 1195 1211 788 996
1327 2129 1584 3330 137 644 189 1178 178 1835 -18 1035 -224 2009 -624 2955
-659 1556 -1821 2892 -3283 3772 -1110 668 -2343 1049 -3647 1128 -196 11
-764 11 -958 -1z m1035 -7047 c0 -5 -18 -51 -41 -103 -22 -52 -60 -141 -84
-199 -24 -58 -102 -246 -174 -418 -72 -172 -131 -320 -131 -328 0 -12 62 -14
419 -14 231 0 422 -4 425 -8 4 -6 -907 -1108 -1307 -1581 -15 -19 -31 -31 -34
-28 -3 4 12 64 35 134 52 166 232 741 283 908 22 72 47 149 56 173 27 76 46
72 -355 72 -197 0 -361 3 -364 6 -3 3 30 94 74 202 73 180 464 1150 475 1180
4 9 86 12 364 12 197 0 359 -4 359 -8z"/>
</g>
</svg>
